<svg width="24" height="24" viewBox="0 0 24 24" fill="none" xmlns="http://www.w3.org/2000/svg">
<g clip-path="url(#clip0_59_3200)">
<path fill-rule="evenodd" clip-rule="evenodd" d="M8.19543 5.52851C8.45577 5.26816 8.87788 5.26816 9.13823 5.52851L11.8049 8.19518C12.0653 8.45553 12.0653 8.87764 11.8049 9.13799C11.5446 9.39834 11.1224 9.39834 10.8621 9.13799L9.3335 7.60939V16.6666C9.3335 17.0348 9.03502 17.3333 8.66683 17.3333C8.29864 17.3333 8.00016 17.0348 8.00016 16.6666V7.60939L6.47157 9.13799C6.21122 9.39834 5.78911 9.39834 5.52876 9.13799C5.26841 8.87764 5.26841 8.45553 5.52876 8.19518L8.19543 5.52851ZM15.3335 6.66659C15.7017 6.66659 16.0002 6.96506 16.0002 7.33325L16.0002 16.3904L17.5288 14.8618C17.7891 14.6015 18.2112 14.6015 18.4716 14.8618C18.7319 15.1222 18.7319 15.5443 18.4716 15.8047L15.8049 18.4713C15.6799 18.5963 15.5103 18.6666 15.3335 18.6666C15.1567 18.6666 14.9871 18.5963 14.8621 18.4713L12.1954 15.8047C11.9351 15.5443 11.9351 15.1222 12.1954 14.8618C12.4558 14.6015 12.8779 14.6015 13.1382 14.8618L14.6668 16.3904V7.33325C14.6668 6.96506 14.9653 6.66659 15.3335 6.66659Z" fill="#4B1979"/>
</g>
<rect x="0.5" y="0.499939" width="23" height="23" rx="11.5" stroke="#4B1979"/>
<defs>
<clipPath id="clip0_59_3200">
<rect width="13.3333" height="13.3333" fill="white" transform="translate(5.3335 5.33325)"/>
</clipPath>
</defs>
</svg>
